Coordinates
version=1
nRows=5
nColumns=40
inDegrees=yes

Units are S.I. units (second, meters, Newtons, ...)
If the header above contains a line with 'inDegrees', this indicates whether rotational values are in degrees (yes) or radians (no).

endheader
time	pelvis_tilt	pelvis_list	pelvis_rotation	pelvis_tx	pelvis_ty	pelvis_tz	hip_flexion_r	hip_adduction_r	hip_rotation_r	knee_angle_r	knee_angle_r_beta	ankle_angle_r	subtalar_angle_r	mtp_angle_r	hip_flexion_l	hip_adduction_l	hip_rotation_l	knee_angle_l	knee_angle_l_beta	ankle_angle_l	subtalar_angle_l	mtp_angle_l	lumbar_extension	lumbar_bending	lumbar_rotation	arm_flex_r	arm_add_r	arm_rot_r	elbow_flex_r	pro_sup_r	wrist_flex_r	wrist_dev_r	arm_flex_l	arm_add_l	arm_rot_l	elbow_flex_l	pro_sup_l	wrist_flex_l	wrist_dev_l
      6.12500000	      1.43760641	     -4.26292108	     -1.92097268	     -0.30332823	      0.87873576	     -1.00379950	     17.03954188	     -5.14295450	     -2.51312703	    100.29447622	      1.75046883	    -19.66604094	      0.00000000	      0.00000000	     35.92901208	     -4.20934904	     -6.93888520	     74.92615604	      1.30770812	     24.96344907	      0.00000000	      0.00000000	    -13.46240107	      0.56634833	      4.78030430	     89.90389601	    -13.20989458	     29.70096719	     32.44263564	     84.22915846	      0.00000000	      0.00000000	     89.94662389	    -18.64485274	     39.27905040	     49.24604302	     80.82849904	      0.00000000	      0.00000000
      6.13000000	      1.41523496	     -4.26864556	     -1.90070123	     -0.30312660	      0.87966321	     -1.00377350	     17.04024851	     -5.14954690	     -2.51580680	    100.28193795	      1.75025000	    -19.65795345	      0.00000000	      0.00000000	     35.89831772	     -4.22745111	     -6.94309434	     74.87113337	      1.30674779	     24.94575909	      0.00000000	      0.00000000	    -13.41150665	      0.57270932	      4.77857596	     89.90305486	    -13.20613482	     29.68669184	     32.47909492	     84.22716482	      0.00000000	      0.00000000	     89.94632179	    -18.64232139	     39.27001414	     49.25899871	     80.83140792	      0.00000000	      0.00000000
      6.13500000	      1.39671484	     -4.30194853	     -1.83545431	     -0.30306519	      0.88084248	     -1.00374096	     17.06770941	     -5.12613093	     -2.56922871	    100.31288955	      1.75079020	    -19.62019996	      0.00000000	      0.00000000	     35.75303357	     -4.25533045	     -6.94163230	     74.51886212	      1.30059950	     24.80314511	      0.00000000	      0.00000000	    -13.38780187	      0.62294003	      4.76226589	     89.90330834	    -13.24195254	     29.72854631	     32.44801484	     84.23490421	      0.00000000	      0.00000000	     89.94599505	    -18.65999302	     39.36647667	     49.24332785	     80.85234946	      0.00000000	      0.00000000
      6.14000000	      1.38948237	     -4.34319200	     -1.78227617	     -0.30291408	      0.88193092	     -1.00374292	     17.04824612	     -5.09041167	     -2.59308056	    100.29280816	      1.75043972	    -19.60054361	      0.00000000	      0.00000000	     35.63918260	     -4.27996996	     -6.91057772	     74.27575068	      1.29635640	     24.66563471	      0.00000000	      0.00000000	    -13.35142276	      0.68102705	      4.75235387	     89.90309100	    -13.25800634	     29.78686735	     32.41075078	     84.24123048	      0.00000000	      0.00000000	     89.94580537	    -18.66623694	     39.45431455	     49.23864448	     80.87603771	      0.00000000	      0.00000000
      6.14500000	      1.37961207	     -4.35078241	     -1.75784279	     -0.30276510	      0.88275627	     -1.00377364	     17.03486588	     -5.09371952	     -2.58870612	    100.29518618	      1.75048122	    -19.58878439	      0.00000000	      0.00000000	     35.60364005	     -4.28670933	     -6.91514778	     74.22081284	      1.29539756	     24.63794569	      0.00000000	      0.00000000	    -13.31107648	      0.70431432	      4.75895434	     89.90300369	    -13.25786303	     29.77508201	     32.43994169	     84.23955053	      0.00000000	      0.00000000	     89.94583296	    -18.66472925	     39.45424352	     49.25064219	     80.87991990	      0.00000000	      0.00000000
